<svg xmlns="http://www.w3.org/2000/svg" version="1.1" xmlns:xlink="http://www.w3.org/1999/xlink" xmlns:svgjs="http://svgjs.dev/svgjs" width="1500" height="1500" viewBox="0 0 1500 1500"><rect width="1500" height="1500" fill="#ffffff"></rect><g transform="matrix(0.6666666666666666,0,0,0.6666666666666666,249.39393939393938,612.6699357156351)"><svg viewBox="0 0 396 109" data-background-color="#ffffff" preserveAspectRatio="xMidYMid meet" height="412" width="1500" xmlns="http://www.w3.org/2000/svg" xmlns:xlink="http://www.w3.org/1999/xlink"><g id="tight-bounds" transform="matrix(1,0,0,1,0.2400000000000091,-0.0012973046270019495)"><svg viewBox="0 0 395.52 109.00241651946057" height="109.00241651946057" width="395.52"><g><svg viewBox="0 0 395.52 109.00241651946057" height="109.00241651946057" width="395.52"><g><svg viewBox="0 0 395.52 109.00241651946057" height="109.00241651946057" width="395.52"><g id="textblocktransform"><svg viewBox="0 0 395.52 109.00241651946057" height="109.00241651946057" width="395.52" id="textblock"><g><svg viewBox="0 0 395.52 42.32823418319168" height="42.32823418319168" width="395.52"><g transform="matrix(1,0,0,1,0,0)"><svg width="395.52" viewBox="1.95 -33.5 317.68 34" height="42.32823418319168" data-palette-color="#001f3f"><path d="M13.8 0.5L13.8 0.5Q10.35 0.5 7.6-0.23 4.85-0.95 2.45-2.2L2.45-2.2 1.95-10.85 2.9-10.85 7.3-4.05Q8.35-3.25 9.78-2.73 11.2-2.2 12.75-2.2L12.75-2.2Q15.3-2.2 17.03-3.3 18.75-4.4 18.75-6.8L18.75-6.8Q18.75-8.2 18.13-9.18 17.5-10.15 15.7-11.13 13.9-12.1 10.35-13.6L10.35-13.6Q6.8-15.05 4.9-17.38 3-19.7 3-22.75L3-22.75Q3-25 4.15-26.98 5.3-28.95 7.2-30.4 9.1-31.85 11.48-32.68 13.85-33.5 16.3-33.5L16.3-33.5Q19-33.5 21.6-32.85 24.2-32.2 26.2-31.1L26.2-31.1 26.7-23.1 25.8-23.1 21.65-28.95Q20.5-29.8 19.33-30.28 18.15-30.75 16.7-30.75L16.7-30.75Q14.75-30.75 13.48-29.58 12.2-28.4 12.2-26.35L12.2-26.35Q12.2-25.2 12.8-24.25 13.4-23.3 14.85-22.4 16.3-21.5 18.9-20.35L18.9-20.35Q23.5-18.35 25.63-16 27.75-13.65 27.75-10.15L27.75-10.15Q27.75-6.85 25.83-4.48 23.9-2.1 20.7-0.8 17.5 0.5 13.8 0.5ZM49.2 0L31.45 0 31.45-0.8 35.25-2.45 35.25-25.55 31.45-27.2 31.45-28 49.25-28Q54.25-28 57.3-26.23 60.35-24.45 60.35-20.55L60.35-20.55Q60.35-18.1 58.75-16.3 57.15-14.5 54.4-13.48 51.65-12.45 48.2-12.45L48.2-12.45 44.5-12.45 44.5-2.45 49.2-0.8 49.2 0ZM44.75-25.4L44.5-25.4 44.5-14.7 45.05-14.7Q48.15-14.7 49.6-16.18 51.05-17.65 51.05-20.1L51.05-20.1Q51.05-22.9 49.52-24.15 48-25.4 44.75-25.4L44.75-25.4ZM90 0L62.85 0 62.85-0.8 66.65-2.45 66.65-25.55 62.85-27.2 62.85-28 88.8-28 88.8-20.2 88-20.2 84.2-25.4 75.9-25.4 75.9-15.6 81.65-15.6 84.5-19.35 85.25-19.35 85.25-9.65 84.5-9.65 81.65-13.35 75.9-13.35 75.9-2.6 85.09-2.6 89.2-9.7 90-9.7 90 0ZM120.64 0L93.49 0 93.49-0.8 97.29-2.45 97.29-25.55 93.49-27.2 93.49-28 119.44-28 119.44-20.2 118.64-20.2 114.84-25.4 106.54-25.4 106.54-15.6 112.29-15.6 115.14-19.35 115.89-19.35 115.89-9.65 115.14-9.65 112.29-13.35 106.54-13.35 106.54-2.6 115.74-2.6 119.84-9.7 120.64-9.7 120.64 0ZM140.84 0L124.14 0 124.14-0.8 127.94-2.45 127.94-25.55 124.14-27.2 124.14-28 141.14-28Q146.39-28 150.07-26.33 153.74-24.65 155.69-21.78 157.64-18.9 157.64-15.3L157.64-15.3Q157.64-10.9 155.47-7.43 153.29-3.95 149.52-1.98 145.74 0 140.84 0L140.84 0ZM137.69-25.4L137.69-25.4 137.19-25.4 137.19-2.6 138.34-2.6Q143.09-2.6 145.59-5.6 148.09-8.6 148.09-14L148.09-14Q148.09-19.4 145.52-22.4 142.94-25.4 137.69-25.4ZM184.94 0L168.09 0 168.09-0.8 171.89-2.45 171.89-13.05 162.89-25.3 159.64-27.2 159.64-28 175.84-28 175.84-27.2 172.59-25.65 172.59-25.5 179.84-15.75 186.34-25.4 186.34-25.6 182.94-27.2 182.94-28 193.04-28 193.04-27.2 189.99-25.75 181.14-13.1 181.14-2.45 184.94-0.8 184.94 0ZM224.54 0L195.04 0 195.04-0.8 199.49-2.9 199.49-30.1 195.04-32.2 195.04-33 213.94-33 213.94-32.2 208.99-30.1 208.99-2.75 219.24-2.75 223.74-12.95 224.54-12.95 224.54 0ZM244.33 0L228.03 0 228.03-0.8 231.38-2.45 231.38-25.55 228.03-27.2 228.03-28 244.33-28 244.33-27.2 240.63-25.55 240.63-2.45 244.33-0.8 244.33 0ZM259.63 0L247.33 0 247.33-0.85 251.13-2.5 251.13-25.55 247.33-27.2 247.33-28 257.73-28 274.18-10.8 274.18-25.55 268.93-27.2 268.93-28 281.13-28 281.13-27.2 277.43-25.55 277.43 0.2 272.88 0.2 254.38-18.95 254.38-2.5 259.63-0.85 259.63 0ZM301.08 0L284.23 0 284.23-0.8 288.03-2.45 288.03-25.55 284.23-27.2 284.23-28 301.08-28 301.08-27.2 297.28-25.55 297.28-2.45 301.08-0.8 301.08 0ZM319.63 0L306.83 0 297.28-14.05 308.73-25.7 305.53-27.2 305.53-28 316.18-28 316.18-27.2 313.18-25.9 305.18-18.2 316.38-2.05 319.63-0.8 319.63 0Z" opacity="1" transform="matrix(1,0,0,1,0,0)" fill="#000000" class="wordmark-text-0" data-fill-palette-color="primary" id="text-0"></path></svg></g></svg></g><g transform="matrix(1,0,0,1,0,62.313594609254004)"><svg viewBox="0 0 395.52 46.68882191020656" height="46.68882191020656" width="395.52"><path d="M395.52 0l-7.781 23.344 7.781 23.345h-395.52l7.781-23.345-7.781-23.344z" data-fill-palette-color="tertiary" opacity="1" fill="#000000"></path><g transform="matrix(1,0,0,1,75.54432,9.99268021303116)"><svg width="244.43135999999998" viewBox="3.75 -36.25 426.0566019398251 46.55" height="26.703461484144242" data-palette-color="#ffffff"><path d="M7.9 0.1L7.9 0.1Q6.2 0.05 5.15-1.3L5.15-1.3Q4.15-2.3 4.1-3.75L4.1-3.75Q4.05-8.85 3.9-18.2L3.9-18.2 3.75-32.25Q3.75-33.7 4.75-34.73 5.75-35.75 7.2-35.77 8.65-35.8 9.68-34.8 10.7-33.8 10.75-32.35L10.75-32.35 10.9-19.25 11.05-6.65Q13.5-6.65 18.18-6.7 22.85-6.75 25.05-6.75L25.05-6.75Q26.5-6.75 27.53-5.78 28.55-4.8 28.55-3.4 28.55-2 27.53-0.98 26.5 0.05 25.05 0.05L25.05 0.05Q23.4 0.05 16.5 0.1L16.5 0.1Q9.55 0.15 7.9 0.1L7.9 0.1ZM31.3-3.4L31.3-3.4Q31.15-14 31.45-23.25L31.45-23.25Q31.5-24.7 32.57-25.68 33.65-26.65 35.1-26.6 36.55-26.55 37.52-25.48 38.5-24.4 38.45-22.95L38.45-22.95Q38.15-13.6 38.3-3.5L38.3-3.5Q38.3-2.05 37.3-1.03 36.3 0 34.85 0.03 33.4 0.05 32.37-0.95 31.35-1.95 31.3-3.4L31.3-3.4ZM37.25-35.15L37.25-35.15Q38.3-34.15 38.3-32.63 38.3-31.1 37.25-30.05 36.2-29 34.7-29 33.2-29 32.15-30.05 31.1-31.1 31.1-32.63 31.1-34.15 32.15-35.2 33.2-36.25 34.7-36.25 36.2-36.25 37.25-35.15L37.25-35.15ZM66.15-3.15L66.15-3.15Q66.09-1.8 65.09-0.85 64.09 0.1 62.75 0.05 61.4 0 60.45-1 59.5-2 59.55-3.35L59.55-3.35Q59.55-3.9 59.67-6.65 59.8-9.4 59.82-10.9 59.84-12.4 59.7-14.38 59.55-16.35 59.15-17.55L59.15-17.55Q58.84-18.5 57.95-19.13 57.05-19.75 55.7-19.85L55.7-19.85Q54.3-20 53.12-19.53 51.95-19.05 51.4-18.2L51.4-18.2Q51.2-17.55 51.17-17.32 51.15-17.1 51.15-16.65L51.15-16.65Q51.15-14.9 51.2-10.38 51.25-5.85 51.25-3.5L51.25-3.5Q51.25-2.05 50.22-1.03 49.2 0 47.75 0 46.3 0 45.27-1.03 44.25-2.05 44.25-3.5L44.25-3.5Q44.25-5.6 44.17-12.1 44.09-18.6 43.75-22.05L43.75-22.05Q43.5-23.85 44.45-24.93 45.4-26 46.9-26L46.9-26Q49.59-25.85 50.05-23.4L50.05-23.4Q52.34-26.3 56.4-26.45L56.4-26.45Q59.95-26.4 62.2-24.53 64.45-22.65 65.45-19.55L65.45-19.55Q66-17.85 66.22-15.25 66.45-12.65 66.42-10.88 66.4-9.1 66.27-6.15 66.15-3.2 66.15-3.15L66.15-3.15ZM88.39-1L88.39-1Q84.24-5.25 81.39-9.45L81.39-9.45 79.39-7.55Q79.29-7.5 79.19-7.4L79.19-7.4 79.19-3.35Q79.14-1.9 78.12-0.9 77.09 0.1 75.64 0.08 74.19 0.05 73.19-0.98 72.19-2 72.19-3.45L72.19-3.45Q72.34-12.45 71.69-32.25L71.69-32.25Q71.64-33.7 72.62-34.75 73.59-35.8 75.04-35.88 76.49-35.95 77.54-34.98 78.59-34 78.69-32.55L78.69-32.55Q78.99-23.8 79.14-16.95L79.14-16.95Q83.04-20.75 87.34-25.35L87.34-25.35Q88.34-26.4 89.77-26.45 91.19-26.5 92.27-25.5 93.34-24.5 93.39-23.08 93.44-21.65 92.44-20.55L92.44-20.55 86.49-14.45Q89.29-10 93.39-5.8L93.39-5.8Q94.39-4.8 94.37-3.35 94.34-1.9 93.32-0.9 92.29 0.1 90.84 0.08 89.39 0.05 88.39-1L88.39-1ZM97.64-3.4L97.64-3.4Q97.49-14 97.79-23.25L97.79-23.25Q97.84-24.7 98.92-25.68 99.99-26.65 101.44-26.6 102.89-26.55 103.87-25.48 104.84-24.4 104.79-22.95L104.79-22.95Q104.49-13.6 104.64-3.5L104.64-3.5Q104.64-2.05 103.64-1.03 102.64 0 101.19 0.03 99.74 0.05 98.72-0.95 97.69-1.95 97.64-3.4L97.64-3.4ZM103.59-35.15L103.59-35.15Q104.64-34.15 104.64-32.63 104.64-31.1 103.59-30.05 102.54-29 101.04-29 99.54-29 98.49-30.05 97.44-31.1 97.44-32.63 97.44-34.15 98.49-35.2 99.54-36.25 101.04-36.25 102.54-36.25 103.59-35.15L103.59-35.15ZM132.49-3.15L132.49-3.15Q132.44-1.8 131.44-0.85 130.44 0.1 129.09 0.05 127.74 0 126.79-1 125.84-2 125.89-3.35L125.89-3.35Q125.89-3.9 126.01-6.65 126.14-9.4 126.16-10.9 126.19-12.4 126.04-14.38 125.89-16.35 125.49-17.55L125.49-17.55Q125.19-18.5 124.29-19.13 123.39-19.75 122.04-19.85L122.04-19.85Q120.64-20 119.46-19.53 118.29-19.05 117.74-18.2L117.74-18.2Q117.54-17.55 117.51-17.32 117.49-17.1 117.49-16.65L117.49-16.65Q117.49-14.9 117.54-10.38 117.59-5.85 117.59-3.5L117.59-3.5Q117.59-2.05 116.56-1.03 115.54 0 114.09 0 112.64 0 111.61-1.03 110.59-2.05 110.59-3.5L110.59-3.5Q110.59-5.6 110.51-12.1 110.44-18.6 110.09-22.05L110.09-22.05Q109.84-23.85 110.79-24.93 111.74-26 113.24-26L113.24-26Q115.94-25.85 116.39-23.4L116.39-23.4Q118.69-26.3 122.74-26.45L122.74-26.45Q126.29-26.4 128.54-24.53 130.79-22.65 131.79-19.55L131.79-19.55Q132.34-17.85 132.56-15.25 132.79-12.65 132.76-10.88 132.74-9.1 132.61-6.15 132.49-3.2 132.49-3.15L132.49-3.15ZM148.74 10.3L148.74 10.3Q146.34 10.3 144.46 9.47 142.59 8.65 140.69 6.95L140.69 6.95Q139.59 6 139.11 5.15 138.64 4.3 138.64 3.4L138.64 3.4Q138.64 1.95 139.59 1 140.54 0.05 141.94 0.05L141.94 0.05Q143.59 0.05 144.54 1.35L144.54 1.35Q145.64 2.8 146.74 3.43 147.84 4.05 149.09 4.05L149.09 4.05Q151.49 4.05 152.89 2.05 154.29 0.05 154.74-3L154.74-3Q153.74-1.4 151.86-0.65 149.99 0.1 147.84 0.1L147.84 0.1Q144.94 0.1 142.49-1.48 140.04-3.05 138.56-5.93 137.09-8.8 137.09-12.5L137.09-12.5Q137.09-16.6 138.59-19.78 140.09-22.95 142.84-24.73 145.59-26.5 149.14-26.5L149.14-26.5Q151.74-26.5 154.69-24.9L154.69-24.9Q154.99-25.6 155.81-26.03 156.64-26.45 157.84-26.45L157.84-26.45Q159.19-26.45 160.01-25.53 160.84-24.6 160.89-22.95L160.89-22.95Q161.04-13.55 160.89-3.4L160.89-3.4Q160.79-0.4 159.56 2.33 158.34 5.05 156.19 7.3L156.19 7.3Q154.69 8.8 152.89 9.55 151.09 10.3 148.74 10.3L148.74 10.3ZM148.64-6.4L148.64-6.4Q150.69-6.4 152.54-8.25L152.54-8.25Q153.09-8.8 153.51-9.55 153.94-10.3 154.19-10.9L154.19-10.9Q154.19-17.2 154.14-18.35L154.14-18.35Q152.99-19.25 151.89-19.63 150.79-20 149.14-20L149.14-20Q146.34-20 145.01-18 143.69-16 143.69-12.5L143.69-12.5Q143.69-9.75 145.04-8.08 146.39-6.4 148.64-6.4L148.64-6.4ZM188.63-3.3L188.63-3.3Q188.63-4.55 188.61-6.73 188.58-8.9 188.58-10.15L188.58-10.15 188.58-13 183.58-21.3Q179.88-27.35 178.08-30.75L178.08-30.75Q177.38-32 177.78-33.38 178.18-34.75 179.46-35.45 180.73-36.15 182.11-35.75 183.48-35.35 184.18-34.05L184.18-34.05Q185.83-31.1 191.68-21.4L191.68-21.4 194.38-25.6 200.08-34.2Q200.83-35.4 202.23-35.75 203.63-36.1 204.86-35.33 206.08-34.55 206.43-33.15 206.78-31.75 205.98-30.5L205.98-30.5Q205.68-30 200.18-21.7L200.18-21.7Q197.23-17.25 195.53-14.25L195.53-14.25Q195.58-13.1 195.58-9.2 195.58-5.3 195.63-3.5L195.63-3.5Q195.68-2.05 194.68-1 193.68 0.05 192.23 0.1 190.78 0.15 189.73-0.85 188.68-1.85 188.63-3.3L188.63-3.3ZM214.83 0.35L214.83 0.35Q210.48-0.5 208.03-3.65L208.03-3.65Q205.53-6.8 205.03-10.85L205.03-10.85Q204.58-14.6 205.88-18.38 207.18-22.15 210.08-24.6L210.08-24.6Q211.23-25.6 213.03-26.15L213.03-26.15Q213.08-26.15 214.08-26.45L214.08-26.45Q214.48-26.55 214.68-26.65L214.68-26.65Q216.08-27.2 217.48-26.55L217.48-26.55Q222.18-25.8 223.78-25L223.78-25Q225.63-24.1 226.93-22.5 228.23-20.9 228.75-19.13 229.28-17.35 229.53-15.38 229.78-13.4 229.48-11.8L229.48-11.8Q229.23-9.35 228.38-7.08 227.53-4.8 225.78-2.75 224.03-0.7 221.68 0.15L221.68 0.15Q218.83 1.15 214.83 0.35L214.83 0.35ZM216.13-6.45L216.13-6.45Q218.28-6.05 219.38-6.45L219.38-6.45Q220.33-6.8 221.3-8.43 222.28-10.05 222.55-12.55 222.83-15.05 222.23-16.68 221.63-18.3 220.78-18.7L220.78-18.7Q220.13-19 219.58-19.13 219.03-19.25 218-19.38 216.98-19.5 215.98-19.75L215.98-19.75Q215.13-19.5 215.08-19.5L215.08-19.5 214.58-19.3Q213.18-18.1 212.43-16 211.68-13.9 211.98-11.65L211.98-11.65Q212.23-9.5 213.3-8.15 214.38-6.8 216.13-6.45L216.13-6.45ZM253.23 0.5L253.23 0.5Q250.38-0.6 250.38-3.15L250.38-3.15Q247.53 0.85 242.28 0L242.28 0Q240.08-0.6 238.45-1.8 236.83-3 235.93-4.65 235.03-6.3 234.58-7.93 234.13-9.55 233.98-11.4L233.98-11.4Q233.83-12.4 233.98-14.7 234.13-17 234.23-18.1 234.33-19.2 234.58-21.13 234.83-23.05 234.88-23.5L234.88-23.5Q235.08-24.9 236.15-25.75 237.23-26.6 238.6-26.43 239.98-26.25 240.83-25.18 241.68-24.1 241.53-22.7L241.53-22.7 241.18-20.1Q240.93-18.25 240.83-17.32 240.73-16.4 240.6-14.53 240.48-12.65 240.63-11.85L240.63-11.85Q240.83-9.4 241.6-8.13 242.38-6.85 244.03-6.45L244.03-6.45Q245.13-6.15 246.48-6.63 247.83-7.1 249.18-9.25L249.18-9.25Q249.48-9.55 249.78-9.75L249.78-9.75Q249.83-17.1 249.73-22.9L249.73-22.9Q249.73-24.4 250.73-25.43 251.73-26.45 253.2-26.48 254.68-26.5 255.7-25.5 256.73-24.5 256.78-23L256.78-23Q256.88-15.6 256.78-2.95L256.78-2.95Q256.78-1.55 255.73-0.5L255.73-0.5Q254.68 0.5 253.23 0.5L253.23 0.5ZM262.22 9.25L262.22 9.25Q260.87 9.25 259.97 8.4 259.07 7.55 259.07 6.2L259.07 6.2Q259.07 5.25 259.42 4.55L259.42 4.55Q259.62 4.15 260.22 3.25L260.22 3.25Q261.02 1.95 261.32 1.3L261.32 1.3Q261.72 0.4 261.97-0.85L261.97-0.85Q262.17-1.75 262.32-2.2L262.32-2.2Q262.67-3.25 263.45-3.88 264.22-4.5 265.32-4.5L265.32-4.5Q266.72-4.5 267.7-3.58 268.67-2.65 268.67-1.2L268.67-1.2Q268.67-0.35 268.3 1.1 267.92 2.55 267.47 3.6L267.47 3.6Q266.72 5.35 265.52 7.2L265.52 7.2Q264.82 8.25 264.05 8.75 263.27 9.25 262.22 9.25L262.22 9.25ZM288.22-3.5L288.22-3.5Q288.22-4.55 288.24-10.43 288.27-16.3 288.24-18.45 288.22-20.6 288.14-24.78 288.07-28.95 287.92-32.25L287.92-32.25Q287.87-33.7 288.84-34.75 289.82-35.8 291.27-35.9L291.27-35.9 291.52-35.9Q298.42-36 310.12-35.9L310.12-35.9Q311.52-35.9 312.57-34.85L312.57-34.85Q313.57-33.8 313.57-32.38 313.57-30.95 312.52-29.93 311.47-28.9 310.02-28.9L310.02-28.9Q300.72-29 295.02-28.95L295.02-28.95Q295.12-25.75 295.17-22.25L295.17-22.25Q302.22-22.25 308.17-22.4L308.17-22.4Q309.62-22.4 310.67-21.4 311.72-20.4 311.74-18.98 311.77-17.55 310.77-16.5 309.77-15.45 308.37-15.4L308.37-15.4Q302.37-15.3 295.22-15.25L295.22-15.25 295.22-3.5Q295.22-2.05 294.19-1.03 293.17 0 291.72 0 290.27 0 289.24-1.03 288.22-2.05 288.22-3.5L288.22-3.5ZM324.42 0.05L324.42 0.05Q322.62 0.05 320.52-0.65L320.52-0.65Q317.92-1.65 316.17-3.6L316.17-3.6Q314.47-5.6 314.07-7.95L314.07-7.95Q313.77-9.5 313.77-10.95L313.77-10.95Q313.77-14.3 315.07-17.25L315.07-17.25Q316.87-21.4 320.12-23.95 323.37-26.5 327.52-26.5L327.52-26.5Q329.02-26.5 330.77-26.1L330.77-26.1Q331.92-25.8 333.02-25.05L333.02-25.05 333.27-25.05 333.77-25.1Q335.02-25.1 335.99-24.2 336.97-23.3 337.12-22L337.12-22 337.47-18.55Q337.57-16.35 337.72-11.05L337.72-11.05 337.82-8.35Q337.92-5.85 337.94-5.08 337.97-4.3 337.87-3.6L337.87-3.6Q337.67-2.15 336.79-1.13 335.92-0.1 334.52-0.05L334.52-0.05Q333.37 0 332.44-0.63 331.52-1.25 331.12-2.9L331.12-2.9Q329.97-1.5 328.32-0.85L328.32-0.85Q326.37-0.05 324.42 0.05L324.42 0.05ZM324.47-7L324.47-7Q325.97-7 327.57-7.95L327.57-7.95Q327.97-8.2 328.47-8.7L328.47-8.7 329.22-9.4 330.07-10.6Q330.37-10.95 330.77-11.1L330.77-11.1Q330.77-15.3 330.52-18.2L330.52-18.2 330.02-18.55 329.32-19.1 328.87-19.4Q328.07-19.6 327.62-19.6L327.62-19.6Q325.82-19.6 324.14-18.2 322.47-16.8 321.47-14.3L321.47-14.3Q320.67-12.35 320.67-10.8L320.67-10.8Q320.67-9.45 321.29-8.55 321.92-7.65 323.07-7.25L323.07-7.25Q323.82-7 324.47-7L324.47-7ZM352.91 0.35L352.91 0.35Q350.71 0.35 348.64-0.2 346.56-0.75 345.16-1.75L345.16-1.75Q344.11-2.6 343.26-4L343.26-4 342.91-4.6 342.46-5.4Q342.01-6.25 342.01-6.95L342.01-6.95Q342.01-8.25 343.09-9.22 344.16-10.2 345.51-10.2L345.51-10.2Q347.21-10.2 348.21-8.7L348.21-8.7 348.81-7.7 349.11-7.1Q349.41-6.5 350.26-6.15L350.26-6.15Q351.56-5.75 352.51-5.75L352.51-5.75Q353.21-5.75 354.26-5.9L354.26-5.9Q356.91-6.45 357.01-7.55L357.01-7.55 357.01-7.75Q357.01-8.35 356.46-8.9L356.46-8.9Q355.81-9.5 353.46-10.45L353.46-10.45 351.26-11.3Q349.41-11.95 348.61-12.35L348.61-12.35Q344.96-13.95 343.86-16.25L343.86-16.25Q343.11-17.75 343.11-19.2L343.11-19.2Q343.11-20.4 343.61-21.45L343.61-21.45Q344.61-23.9 348.26-25.4L348.26-25.4Q350.66-26.35 353.21-26.35L353.21-26.35Q353.71-26.35 354.71-26.25L354.71-26.25Q359.11-25.8 362.41-22.8L362.41-22.8Q363.46-21.9 363.46-20.5L363.46-20.5Q363.46-19.2 362.54-18.15 361.61-17.1 360.26-17.1L360.26-17.1Q359.21-17.1 358.16-17.8L358.16-17.8 356.96-18.7Q356.11-19.3 355.71-19.45L355.71-19.45Q354.21-19.95 352.86-19.95L352.86-19.95Q351.61-19.95 350.71-19.7L350.71-19.7Q350.06-19.45 350.06-19L350.06-19Q350.06-18.7 350.39-18.5 350.71-18.3 351.46-17.95L351.46-17.95Q352.36-17.55 354.06-17L354.06-17Q355.21-16.65 356.41-16.1L356.41-16.1Q357.21-15.75 358.19-15.33 359.16-14.9 360.21-14.15L360.21-14.15Q361.86-13.05 362.81-11.43 363.76-9.8 363.76-7.8L363.76-7.8Q363.76-7.15 363.71-6.8L363.71-6.8Q363.26-3.7 360.89-2 358.51-0.3 355.21 0.2L355.21 0.2Q354.11 0.35 352.91 0.35L352.91 0.35ZM377.41 0.1L377.41 0.1Q376.41 0.1 375.46-0.55L375.46-0.55Q374.91-0.75 374.41-1.05L374.41-1.05 373.11-1.8Q371.11-2.95 370.11-3.95L370.11-3.95Q369.26-5.05 369.06-6.13 368.86-7.2 368.81-9.3L368.81-9.3 368.81-10.3Q368.76-11.75 368.76-17.05L368.76-17.05Q368.76-19.2 368.81-20.3L368.81-20.3 367.86-20.3Q366.61-20.3 365.69-21.18 364.76-22.05 364.76-23.4L364.76-23.4Q364.76-24.8 365.71-25.73 366.66-26.65 367.91-26.65L367.91-26.65 368.81-26.65 368.86-28.8 368.86-30.35Q368.91-31.95 369.94-32.83 370.96-33.7 372.31-33.7L372.31-33.7Q373.71-33.7 374.79-32.75 375.86-31.8 375.86-30.15L375.86-30.15 375.76-26.75 377.61-26.75Q379.41-26.75 380.31-25.8 381.21-24.85 381.21-23.4L381.21-23.4Q381.21-22 380.26-21.03 379.31-20.05 377.46-20.05L377.46-20.05 375.61-20.05Q375.61-18 375.56-17L375.56-17Q375.51-15.95 375.51-14L375.51-14Q375.51-10.8 375.71-8.45L375.71-8.45Q375.91-8.25 375.96-8.25L375.96-8.25 376.46-7.9 376.86-7.7 377.31-7.45 377.71-7.25Q378.61-6.85 379.26-6.35L379.26-6.35Q380.81-5.3 380.81-3.55L380.81-3.55Q380.81-2.15 379.81-1.03 378.81 0.1 377.41 0.1L377.41 0.1ZM396.36 0.45L396.36 0.45Q392.36 0.45 389.36-1.25 386.36-2.95 384.78-5.8 383.21-8.65 383.21-12.1L383.21-12.1Q383.21-16.45 384.81-19.63 386.41-22.8 389.41-24.65 392.41-26.5 396.21-26.5L396.21-26.5Q400.11-26.5 402.88-24.9 405.66-23.3 407.06-20.58 408.46-17.85 408.46-14.5L408.46-14.5Q408.46-12.8 407.36-11.85 406.26-10.9 404.41-10.75L404.41-10.75Q400.66-10.4 397.76-10.4L397.76-10.4Q395.01-10.4 391.86-10.55L391.86-10.55 390.11-10.6Q390.41-8.15 392.03-6.78 393.66-5.4 396.96-5.5L396.96-5.5Q398.46-5.55 399.36-5.88 400.26-6.2 400.96-6.85L400.96-6.85Q401.36-7.25 401.81-7.7 402.26-8.15 402.81-8.4 403.36-8.65 404.16-8.65L404.16-8.65Q405.46-8.65 406.33-7.78 407.21-6.9 407.21-5.75L407.21-5.75Q407.21-4.15 405.61-2.7 404.01-1.25 401.48-0.4 398.96 0.45 396.36 0.45L396.36 0.45ZM390.21-15.7L390.21-15.7Q393.16-15.3 396.76-15.4L396.76-15.4Q400.21-15.45 401.81-15.85L401.81-15.85Q401.71-18 400.53-19.3 399.36-20.6 396.31-20.55L396.31-20.55Q393.76-20.5 392.16-19.4 390.56-18.3 390.21-15.7L390.21-15.7ZM413.86-1.05L413.86-1.05Q412.81-2.05 412.81-3.45L412.81-3.45Q412.76-8.4 412.76-11.25L412.76-11.25Q412.66-11.85 412.76-12.4L412.76-12.4Q412.71-17.95 412.71-22.45L412.71-22.45Q412.71-24.4 413.73-25.43 414.76-26.45 416.21-26.45L416.21-26.45Q417.26-26.45 418.13-25.88 419.01-25.3 419.41-23.85L419.41-23.85Q421.41-24.95 425.41-26.35L425.41-26.35Q426.71-26.8 427.93-26.23 429.16-25.65 429.61-24.35 430.06-23.05 429.48-21.83 428.91-20.6 427.61-20.15L427.61-20.15Q423.01-18.55 419.76-17L419.76-17Q419.56-15.4 419.71-12.45L419.71-12.45Q419.76-9.3 419.81-3.55L419.81-3.55Q419.81-2.1 418.78-1.05 417.76 0 416.33 0 414.91 0 413.86-1.05L413.86-1.05Z" opacity="1" transform="matrix(1,0,0,1,0,0)" fill="#ffffff" class="slogan-text-1" data-fill-palette-color="quaternary" id="text-1"></path></svg></g></svg></g></svg></g></svg></g><g></g></svg></g><defs></defs></svg><rect width="395.52" height="109.00241651946057" fill="none" stroke="none" visibility="hidden"></rect></g></svg></g></svg>